<mxfile host="app.diagrams.net" modified="2023-07-24T15:21:21.107Z" agent="Mozilla/5.0 (X11; Linux x86_64; rv:109.0) Gecko/20100101 Firefox/115.0" etag="o1mgjdugIi8KPLmsveyU" version="21.6.5" type="device">
  <diagram name="Page-1" id="O7eGjBBFtS8AT84t9Ewv">
    <mxGraphModel dx="1631" dy="872" grid="1" gridSize="10" guides="1" tooltips="1" connect="1" arrows="1" fold="1" page="1" pageScale="1" pageWidth="1600" pageHeight="900" math="0" shadow="0">
      <root>
        <mxCell id="0" />
        <mxCell id="1" parent="0" />
        <mxCell id="FbJJR03UUYZcP0WpMWzH-1" value="" style="strokeWidth=1;shadow=0;dashed=0;align=center;shape=mxgraph.mockup.containers.browserWindow;rSize=0;strokeColor=#666666;strokeColor2=#008cff;strokeColor3=#c4c4c4;mainText=,;recursiveResize=0;fontSize=24;html=1;aspect=fixed;" parent="1" vertex="1">
          <mxGeometry y="120" width="1386.67" height="780" as="geometry" />
        </mxCell>
        <mxCell id="FbJJR03UUYZcP0WpMWzH-2" value="Page 1" style="strokeWidth=1;shadow=0;dashed=0;align=center;html=1;shape=mxgraph.mockup.containers.anchor;fontSize=17;fontColor=#666666;align=left;whiteSpace=wrap;" parent="FbJJR03UUYZcP0WpMWzH-1" vertex="1">
          <mxGeometry x="60" y="12" width="110" height="26" as="geometry" />
        </mxCell>
        <mxCell id="FbJJR03UUYZcP0WpMWzH-3" value="https://www.draw.io" style="strokeWidth=1;shadow=0;dashed=0;align=center;html=1;shape=mxgraph.mockup.containers.anchor;rSize=0;fontSize=17;fontColor=#666666;align=left;" parent="FbJJR03UUYZcP0WpMWzH-1" vertex="1">
          <mxGeometry x="130" y="60" width="250" height="26" as="geometry" />
        </mxCell>
        <mxCell id="FbJJR03UUYZcP0WpMWzH-4" value="AI PROFILER" style="text;html=1;strokeColor=none;fillColor=none;align=center;verticalAlign=middle;whiteSpace=wrap;rounded=0;fontSize=55;fontStyle=1;" parent="FbJJR03UUYZcP0WpMWzH-1" vertex="1">
          <mxGeometry x="528.33" y="150" width="330" height="140" as="geometry" />
        </mxCell>
        <mxCell id="FbJJR03UUYZcP0WpMWzH-5" value="A simple application that uses AI to extract personal characteristics from text&#39;s authors" style="text;spacingTop=-5;whiteSpace=wrap;html=1;align=center;fontSize=19;fontFamily=Helvetica;fillColor=none;strokeColor=none;" parent="FbJJR03UUYZcP0WpMWzH-1" vertex="1">
          <mxGeometry x="323.75" y="300" width="739.17" height="30" as="geometry" />
        </mxCell>
        <mxCell id="FbJJR03UUYZcP0WpMWzH-6" value="" style="rounded=1;whiteSpace=wrap;html=1;fillColor=#f5f5f5;fontColor=#333333;strokeColor=#666666;fontSize=19;" parent="FbJJR03UUYZcP0WpMWzH-1" vertex="1">
          <mxGeometry x="482.65999999999997" y="470" width="174.17" height="180" as="geometry" />
        </mxCell>
        <mxCell id="FbJJR03UUYZcP0WpMWzH-9" value="SELECT AN ALGORITHM" style="text;html=1;strokeColor=none;fillColor=none;align=center;verticalAlign=middle;whiteSpace=wrap;rounded=0;fontSize=16;fontStyle=1" parent="FbJJR03UUYZcP0WpMWzH-1" vertex="1">
          <mxGeometry x="590.26" y="415" width="206.16" height="20" as="geometry" />
        </mxCell>
        <mxCell id="FbJJR03UUYZcP0WpMWzH-12" value="" style="html=1;verticalLabelPosition=bottom;labelBackgroundColor=#ffffff;verticalAlign=top;shadow=0;dashed=0;strokeWidth=2;shape=mxgraph.ios7.misc.left;strokeColor=#000103;" parent="FbJJR03UUYZcP0WpMWzH-1" vertex="1">
          <mxGeometry x="576" y="417" width="5" height="11" as="geometry" />
        </mxCell>
        <mxCell id="FbJJR03UUYZcP0WpMWzH-14" value="" style="rounded=1;whiteSpace=wrap;html=1;fillColor=#f5f5f5;fontColor=#333333;strokeColor=#666666;fontSize=19;" parent="FbJJR03UUYZcP0WpMWzH-1" vertex="1">
          <mxGeometry x="729.83" y="470" width="174.17" height="180" as="geometry" />
        </mxCell>
        <mxCell id="FbJJR03UUYZcP0WpMWzH-15" value="&lt;font style=&quot;font-size: 16px;&quot;&gt;Matrinc Algorithm&lt;/font&gt;" style="text;html=1;strokeColor=none;fillColor=none;align=center;verticalAlign=middle;whiteSpace=wrap;rounded=0;fontSize=16;fontStyle=1" parent="FbJJR03UUYZcP0WpMWzH-1" vertex="1">
          <mxGeometry x="499.74" y="490" width="140" height="30" as="geometry" />
        </mxCell>
        <mxCell id="SmeIuksZdG8fyCtH_E5x-1" value="Grivas Algorithm" style="text;html=1;strokeColor=none;fillColor=none;align=center;verticalAlign=middle;whiteSpace=wrap;rounded=0;fontSize=16;fontStyle=1" vertex="1" parent="FbJJR03UUYZcP0WpMWzH-1">
          <mxGeometry x="746.9200000000001" y="490" width="140" height="30" as="geometry" />
        </mxCell>
        <mxCell id="SmeIuksZdG8fyCtH_E5x-2" value="" style="shape=callout;whiteSpace=wrap;html=1;perimeter=calloutPerimeter;direction=north;rounded=1;" vertex="1" parent="FbJJR03UUYZcP0WpMWzH-1">
          <mxGeometry x="110" y="417" width="372.66" height="285" as="geometry" />
        </mxCell>
        <mxCell id="SmeIuksZdG8fyCtH_E5x-3" value="ALGORITHM DESCRIPTION TOOLTIP" style="text;html=1;strokeColor=none;fillColor=none;align=center;verticalAlign=middle;whiteSpace=wrap;rounded=0;fontStyle=1;fontSize=14;" vertex="1" parent="FbJJR03UUYZcP0WpMWzH-1">
          <mxGeometry x="120.08" y="428" width="249.92" height="30" as="geometry" />
        </mxCell>
        <mxCell id="SmeIuksZdG8fyCtH_E5x-4" value="Lorem ipsum dolor sit amet, consectetur adipisicing elit, sed do eiusmod tempor incididunt ut labore et dolore magna aliqua. Ut enim ad minim veniam, quis nostrud exercitation ullamco laboris nisi ut aliquip ex ea commodo consequat. Duis aute irure dolor in reprehenderit in voluptate velit esse cillum" style="text;spacingTop=-5;whiteSpace=wrap;html=1;align=left;fontSize=13;fontFamily=Helvetica;fillColor=none;strokeColor=none;" vertex="1" parent="FbJJR03UUYZcP0WpMWzH-1">
          <mxGeometry x="120.08" y="470" width="309.92" height="110" as="geometry" />
        </mxCell>
        <mxCell id="SmeIuksZdG8fyCtH_E5x-5" value="" style="shape=table;html=1;whiteSpace=wrap;startSize=0;container=1;collapsible=0;childLayout=tableLayout;strokeWidth=2;" vertex="1" parent="FbJJR03UUYZcP0WpMWzH-1">
          <mxGeometry x="150" y="590" width="270" height="80" as="geometry" />
        </mxCell>
        <mxCell id="SmeIuksZdG8fyCtH_E5x-6" value="" style="shape=tableRow;horizontal=0;startSize=0;swimlaneHead=0;swimlaneBody=0;top=0;left=0;bottom=0;right=0;collapsible=0;dropTarget=0;fillColor=none;points=[[0,0.5],[1,0.5]];portConstraint=eastwest;" vertex="1" parent="SmeIuksZdG8fyCtH_E5x-5">
          <mxGeometry width="270" height="27" as="geometry" />
        </mxCell>
        <mxCell id="SmeIuksZdG8fyCtH_E5x-7" value="F1 SCORE" style="shape=partialRectangle;html=1;whiteSpace=wrap;connectable=0;fillColor=none;top=0;left=0;bottom=0;right=0;overflow=hidden;fontStyle=1" vertex="1" parent="SmeIuksZdG8fyCtH_E5x-6">
          <mxGeometry width="136" height="27" as="geometry">
            <mxRectangle width="136" height="27" as="alternateBounds" />
          </mxGeometry>
        </mxCell>
        <mxCell id="SmeIuksZdG8fyCtH_E5x-8" value="ACCURACY" style="shape=partialRectangle;html=1;whiteSpace=wrap;connectable=0;fillColor=none;top=0;left=0;bottom=0;right=0;overflow=hidden;fontStyle=1" vertex="1" parent="SmeIuksZdG8fyCtH_E5x-6">
          <mxGeometry x="136" width="134" height="27" as="geometry">
            <mxRectangle width="134" height="27" as="alternateBounds" />
          </mxGeometry>
        </mxCell>
        <mxCell id="SmeIuksZdG8fyCtH_E5x-9" value="" style="shape=tableRow;horizontal=0;startSize=0;swimlaneHead=0;swimlaneBody=0;top=0;left=0;bottom=0;right=0;collapsible=0;dropTarget=0;fillColor=none;points=[[0,0.5],[1,0.5]];portConstraint=eastwest;" vertex="1" parent="SmeIuksZdG8fyCtH_E5x-5">
          <mxGeometry y="27" width="270" height="26" as="geometry" />
        </mxCell>
        <mxCell id="SmeIuksZdG8fyCtH_E5x-10" value="row 1, cell 1" style="shape=partialRectangle;html=1;whiteSpace=wrap;connectable=0;fillColor=none;top=0;left=0;bottom=0;right=0;overflow=hidden;" vertex="1" parent="SmeIuksZdG8fyCtH_E5x-9">
          <mxGeometry width="136" height="26" as="geometry">
            <mxRectangle width="136" height="26" as="alternateBounds" />
          </mxGeometry>
        </mxCell>
        <mxCell id="SmeIuksZdG8fyCtH_E5x-11" value="row 1, cell 2" style="shape=partialRectangle;html=1;whiteSpace=wrap;connectable=0;fillColor=none;top=0;left=0;bottom=0;right=0;overflow=hidden;" vertex="1" parent="SmeIuksZdG8fyCtH_E5x-9">
          <mxGeometry x="136" width="134" height="26" as="geometry">
            <mxRectangle width="134" height="26" as="alternateBounds" />
          </mxGeometry>
        </mxCell>
        <mxCell id="SmeIuksZdG8fyCtH_E5x-12" value="" style="shape=tableRow;horizontal=0;startSize=0;swimlaneHead=0;swimlaneBody=0;top=0;left=0;bottom=0;right=0;collapsible=0;dropTarget=0;fillColor=none;points=[[0,0.5],[1,0.5]];portConstraint=eastwest;" vertex="1" parent="SmeIuksZdG8fyCtH_E5x-5">
          <mxGeometry y="53" width="270" height="27" as="geometry" />
        </mxCell>
        <mxCell id="SmeIuksZdG8fyCtH_E5x-13" value="row 2, cell 1" style="shape=partialRectangle;html=1;whiteSpace=wrap;connectable=0;fillColor=none;top=0;left=0;bottom=0;right=0;overflow=hidden;" vertex="1" parent="SmeIuksZdG8fyCtH_E5x-12">
          <mxGeometry width="136" height="27" as="geometry">
            <mxRectangle width="136" height="27" as="alternateBounds" />
          </mxGeometry>
        </mxCell>
        <mxCell id="SmeIuksZdG8fyCtH_E5x-14" value="row 2, cell 2" style="shape=partialRectangle;html=1;whiteSpace=wrap;connectable=0;fillColor=none;top=0;left=0;bottom=0;right=0;overflow=hidden;" vertex="1" parent="SmeIuksZdG8fyCtH_E5x-12">
          <mxGeometry x="136" width="134" height="27" as="geometry">
            <mxRectangle width="134" height="27" as="alternateBounds" />
          </mxGeometry>
        </mxCell>
        <mxCell id="SmeIuksZdG8fyCtH_E5x-15" value="" style="shape=callout;whiteSpace=wrap;html=1;perimeter=calloutPerimeter;direction=south;rounded=1;" vertex="1" parent="FbJJR03UUYZcP0WpMWzH-1">
          <mxGeometry x="904" y="410" width="372.66" height="285" as="geometry" />
        </mxCell>
        <mxCell id="SmeIuksZdG8fyCtH_E5x-16" value="ALGORITHM DESCRIPTION TOOLTIP" style="text;html=1;strokeColor=none;fillColor=none;align=center;verticalAlign=middle;whiteSpace=wrap;rounded=0;fontStyle=1;fontSize=14;" vertex="1" parent="FbJJR03UUYZcP0WpMWzH-1">
          <mxGeometry x="950.0799999999999" y="421" width="249.92" height="30" as="geometry" />
        </mxCell>
        <mxCell id="SmeIuksZdG8fyCtH_E5x-17" value="Lorem ipsum dolor sit amet, consectetur adipisicing elit, sed do eiusmod tempor incididunt ut labore et dolore magna aliqua. Ut enim ad minim veniam, quis nostrud exercitation ullamco laboris nisi ut aliquip ex ea commodo consequat. Duis aute irure dolor in reprehenderit in voluptate velit esse cillum" style="text;spacingTop=-5;whiteSpace=wrap;html=1;align=left;fontSize=13;fontFamily=Helvetica;fillColor=none;strokeColor=none;" vertex="1" parent="FbJJR03UUYZcP0WpMWzH-1">
          <mxGeometry x="950.0799999999999" y="463" width="309.92" height="110" as="geometry" />
        </mxCell>
        <mxCell id="SmeIuksZdG8fyCtH_E5x-18" value="" style="shape=table;html=1;whiteSpace=wrap;startSize=0;container=1;collapsible=0;childLayout=tableLayout;strokeWidth=2;" vertex="1" parent="FbJJR03UUYZcP0WpMWzH-1">
          <mxGeometry x="980" y="583" width="270" height="80" as="geometry" />
        </mxCell>
        <mxCell id="SmeIuksZdG8fyCtH_E5x-19" value="" style="shape=tableRow;horizontal=0;startSize=0;swimlaneHead=0;swimlaneBody=0;top=0;left=0;bottom=0;right=0;collapsible=0;dropTarget=0;fillColor=none;points=[[0,0.5],[1,0.5]];portConstraint=eastwest;" vertex="1" parent="SmeIuksZdG8fyCtH_E5x-18">
          <mxGeometry width="270" height="27" as="geometry" />
        </mxCell>
        <mxCell id="SmeIuksZdG8fyCtH_E5x-20" value="F1 SCORE" style="shape=partialRectangle;html=1;whiteSpace=wrap;connectable=0;fillColor=none;top=0;left=0;bottom=0;right=0;overflow=hidden;fontStyle=1" vertex="1" parent="SmeIuksZdG8fyCtH_E5x-19">
          <mxGeometry width="136" height="27" as="geometry">
            <mxRectangle width="136" height="27" as="alternateBounds" />
          </mxGeometry>
        </mxCell>
        <mxCell id="SmeIuksZdG8fyCtH_E5x-21" value="ACCURACY" style="shape=partialRectangle;html=1;whiteSpace=wrap;connectable=0;fillColor=none;top=0;left=0;bottom=0;right=0;overflow=hidden;fontStyle=1" vertex="1" parent="SmeIuksZdG8fyCtH_E5x-19">
          <mxGeometry x="136" width="134" height="27" as="geometry">
            <mxRectangle width="134" height="27" as="alternateBounds" />
          </mxGeometry>
        </mxCell>
        <mxCell id="SmeIuksZdG8fyCtH_E5x-22" value="" style="shape=tableRow;horizontal=0;startSize=0;swimlaneHead=0;swimlaneBody=0;top=0;left=0;bottom=0;right=0;collapsible=0;dropTarget=0;fillColor=none;points=[[0,0.5],[1,0.5]];portConstraint=eastwest;" vertex="1" parent="SmeIuksZdG8fyCtH_E5x-18">
          <mxGeometry y="27" width="270" height="26" as="geometry" />
        </mxCell>
        <mxCell id="SmeIuksZdG8fyCtH_E5x-23" value="row 1, cell 1" style="shape=partialRectangle;html=1;whiteSpace=wrap;connectable=0;fillColor=none;top=0;left=0;bottom=0;right=0;overflow=hidden;" vertex="1" parent="SmeIuksZdG8fyCtH_E5x-22">
          <mxGeometry width="136" height="26" as="geometry">
            <mxRectangle width="136" height="26" as="alternateBounds" />
          </mxGeometry>
        </mxCell>
        <mxCell id="SmeIuksZdG8fyCtH_E5x-24" value="row 1, cell 2" style="shape=partialRectangle;html=1;whiteSpace=wrap;connectable=0;fillColor=none;top=0;left=0;bottom=0;right=0;overflow=hidden;" vertex="1" parent="SmeIuksZdG8fyCtH_E5x-22">
          <mxGeometry x="136" width="134" height="26" as="geometry">
            <mxRectangle width="134" height="26" as="alternateBounds" />
          </mxGeometry>
        </mxCell>
        <mxCell id="SmeIuksZdG8fyCtH_E5x-25" value="" style="shape=tableRow;horizontal=0;startSize=0;swimlaneHead=0;swimlaneBody=0;top=0;left=0;bottom=0;right=0;collapsible=0;dropTarget=0;fillColor=none;points=[[0,0.5],[1,0.5]];portConstraint=eastwest;" vertex="1" parent="SmeIuksZdG8fyCtH_E5x-18">
          <mxGeometry y="53" width="270" height="27" as="geometry" />
        </mxCell>
        <mxCell id="SmeIuksZdG8fyCtH_E5x-26" value="row 2, cell 1" style="shape=partialRectangle;html=1;whiteSpace=wrap;connectable=0;fillColor=none;top=0;left=0;bottom=0;right=0;overflow=hidden;" vertex="1" parent="SmeIuksZdG8fyCtH_E5x-25">
          <mxGeometry width="136" height="27" as="geometry">
            <mxRectangle width="136" height="27" as="alternateBounds" />
          </mxGeometry>
        </mxCell>
        <mxCell id="SmeIuksZdG8fyCtH_E5x-27" value="row 2, cell 2" style="shape=partialRectangle;html=1;whiteSpace=wrap;connectable=0;fillColor=none;top=0;left=0;bottom=0;right=0;overflow=hidden;" vertex="1" parent="SmeIuksZdG8fyCtH_E5x-25">
          <mxGeometry x="136" width="134" height="27" as="geometry">
            <mxRectangle width="134" height="27" as="alternateBounds" />
          </mxGeometry>
        </mxCell>
        <mxCell id="SmeIuksZdG8fyCtH_E5x-28" value="&lt;div style=&quot;font-size: 15px;&quot;&gt;- Gender&lt;/div&gt;&lt;div style=&quot;font-size: 15px;&quot;&gt;- Age&lt;/div&gt;&lt;div style=&quot;font-size: 15px;&quot;&gt;- Occupation&lt;/div&gt;&lt;div style=&quot;font-size: 15px;&quot;&gt;...&lt;br style=&quot;font-size: 15px;&quot;&gt;&lt;/div&gt;" style="strokeWidth=1;shadow=0;dashed=0;align=center;html=1;shape=mxgraph.mockup.text.bulletedList;textColor=#666666;mainText=,,,,;textSize=17;bulletStyle=none;strokeColor=none;fillColor=none;align=left;verticalAlign=top;fontSize=15;fontColor=#000000;" vertex="1" parent="FbJJR03UUYZcP0WpMWzH-1">
          <mxGeometry x="504.5" y="530" width="76.5" height="100" as="geometry" />
        </mxCell>
        <mxCell id="SmeIuksZdG8fyCtH_E5x-29" value="&lt;div style=&quot;font-size: 15px;&quot;&gt;- Gender&lt;/div&gt;&lt;div style=&quot;font-size: 15px;&quot;&gt;- Age&lt;/div&gt;&lt;div style=&quot;font-size: 15px;&quot;&gt;- Personality&lt;br&gt;&lt;/div&gt;&lt;div style=&quot;font-size: 15px;&quot;&gt;...&lt;br style=&quot;font-size: 15px;&quot;&gt;&lt;/div&gt;" style="strokeWidth=1;shadow=0;dashed=0;align=center;html=1;shape=mxgraph.mockup.text.bulletedList;textColor=#666666;mainText=,,,,;textSize=17;bulletStyle=none;strokeColor=none;fillColor=none;align=left;verticalAlign=top;fontSize=15;fontColor=#000000;" vertex="1" parent="FbJJR03UUYZcP0WpMWzH-1">
          <mxGeometry x="750" y="530" width="76.5" height="100" as="geometry" />
        </mxCell>
      </root>
    </mxGraphModel>
  </diagram>
</mxfile>
